# xmcd
#
# Track frame offsets: 
#        150
#        12892
#        27541
#        40287
#        54732
#        66912
#        82436
#        97972
#        110250
#        124405
#        138204
#        151247
#        164204
#        177502
#        191109
#        207095
#        219964
#        233497
#        245264
#        261340
#        274796
#        288662
#        305362
#        317507
#        332045
#        343782
#
# Disc length: 4723 seconds
#
# Revision: 1
# Processed by: cddbd v1.5.2PL0 Copyright (c) Steve Scherf et al.
# Submitted via: ExactAudioCopyFreeDBPlugin 1.0
#
DISCID=8a12711a
DTITLE=Fats Waller - The Essential Collection [CD1]
DYEAR=2006
DGENRE=Jazz
TTITLE0=Morris's Hot Babies - Fats Waller - Won't You Take Me Home?
TTITLE1=Jack Teargarden and His Orchestra - Fats Waller - You Rascal, You
TTITLE2=Handful Of Keys
TTITLE3=Loveless Love
TTITLE4=His Buddies - Fats Waller - Harlem Fuss
TTITLE5=Jack Teargarden and His Orchestra - Fats Waller - That's What I L
TTITLE5=ike About You
TTITLE6=Valentine Stomp
TTITLE7=His Rhythm - Fats Waller - I Wish I Were Twins
TTITLE8=Hog-Maw Stomp
TTITLE9=His Buddies - Fats Waller - Won't You Get Off It, Please?
TTITLE10=His Rhythm - Fats Waller - Don't Let It Bother You
TTITLE11=I've Got A Feeling I'm Falling
TTITLE12=His Rhythm - Fats Waller - Sweet Sue - Just You
TTITLE13=Soothin' Syrup Stomp
TTITLE14=His Rhythm - Fats Waller - I'm Gonna Sit Right Down And Write 
TTITLE14=Myself A Letter
TTITLE15=His Rhythm - Fats Waller - Twelfth Street Rag
TTITLE16=Viper's Drag
TTITLE17=His Rhythm - Fats Waller - Got A Bran' New Suit
TTITLE18=His Rhythm - Fats Waller - My Very Good Friend The Milkman
TTITLE19=His Rhythm - Fats Waller - Woe Is Me
TTITLE20=Sugar
TTITLE21=His Rhythm - Fats Waller - When Somebody Thinks You're Wonderf
TTITLE21=ul
TTITLE22=His Rhythm - Fats Waller - I've Got My Fingers Crossed
TTITLE23=His Rhythm - Fats Waller - Sugar Rose
TTITLE24=His Rhythm - Fats Waller - Baby Brown
TTITLE25=His Rhythm - Fats Waller - Let's Sing Again
EXTD=YEAR: 2006
EXTT0=
EXTT1=
EXTT2=
EXTT3=
EXTT4=
EXTT5=
EXTT6=
EXTT7=
EXTT8=
EXTT9=
EXTT10=
EXTT11=
EXTT12=
EXTT13=
EXTT14=
EXTT15=
EXTT16=
EXTT17=
EXTT18=
EXTT19=
EXTT20=
EXTT21=
EXTT22=
EXTT23=
EXTT24=
EXTT25=
PLAYORDER=
